<svg width="908" height="180" viewBox="0 0 908 180" fill="none" xmlns="http://www.w3.org/2000/svg">
<path d="M53.8817 131.97C48.042 131.991 46.2481 127.889 43.9771 122.823C38.061 109.489 32.1259 96.1345 26.1908 82.7798C23.1183 99.1697 20.0648 115.581 17.0114 131.991C13.748 132.012 10.5228 131.991 7.25949 131.97C-1.15655 132.012 -0.469525 127.072 0.675514 120.646C4.28239 100.991 7.92743 81.3355 11.5916 61.7011C12.8511 55.1284 13.8244 50 22.603 50C25.8473 50 29.1106 50 32.3931 50C40.1221 67.0807 47.8893 84.1613 55.6183 101.305C53.0229 102.31 50.4275 103.314 47.813 104.319C50.8855 104.34 53.9771 104.34 57.0496 104.34C59.7213 90.127 62.3931 75.914 65.103 61.6802C66.458 55.1284 67.4313 50 76.1908 50C79.4542 50 82.7366 50 86 50C81.4389 73.5278 76.8969 97.0765 72.3931 120.625C70.8091 128.935 66.4771 131.991 60.0267 131.991C57.9656 131.991 55.9236 131.991 53.8817 131.97Z" fill="white"/>
<path d="M132.79 79.55C136.19 61.37 139.6 43.18 143 25C126 51.86 109 78.71 92 105.57H121.52C118.43 122.02 115.34 138.46 112.25 154.91C129.34 129.62 146.42 104.33 163.51 79.04C154.37 79.21 141.93 79.38 132.79 79.55Z" fill="#FFCC00"/>
<path d="M199.35 130.69H188.29C185.88 130.69 184.07 130.4 182.84 129.82C181.61 129.24 180.77 128.44 180.33 127.44C179.88 126.43 179.73 125.25 179.88 123.89C180.03 122.53 180.23 121.04 180.49 119.41L191.5 60.8699H160.77C161 59.5499 161.45 58.21 162.1 56.86C162.75 55.5 163.62 54.2599 164.7 53.1299C165.78 52.0099 167.15 51.08 168.81 50.34C170.46 49.6 172.46 49.23 174.78 49.23H246.13C245.9 50.55 245.39 51.8899 244.63 53.2499C243.86 54.6099 242.86 55.85 241.62 56.98C240.38 58.1 238.88 59.04 237.11 59.77C235.34 60.51 233.29 60.8799 230.96 60.8799H212.46L207.45 87.9999L196.25 91.84H206.72L199.36 130.71L199.35 130.69Z" fill="white"/>
<path d="M269.18 130.69H258.12C255.71 130.69 253.9 130.4 252.67 129.82C251.44 129.24 250.6 128.44 250.16 127.44C249.71 126.43 249.56 125.25 249.71 123.89C249.86 122.53 250.06 121.04 250.32 119.41L261.33 60.87C261.66 59.24 262.01 57.71 262.38 56.27C262.75 54.84 263.34 53.59 264.17 52.55C264.99 51.5 266.13 50.69 267.58 50.11C269.03 49.53 270.99 49.24 273.48 49.24H329.46C332.41 49.24 334.92 49.4 336.99 49.71C339.06 50.02 340.72 50.6 341.95 51.46C343.18 52.32 344 53.5 344.38 55.01C344.76 56.52 344.74 58.48 344.31 60.89L339.45 86.84C339.04 88.94 338.44 90.68 337.64 92.08C336.84 93.48 335.85 94.6 334.68 95.46C333.51 96.31 332.14 96.92 330.57 97.26C329 97.61 327.3 97.86 325.47 98.02L334.36 130.73H310.97L302.91 98.14H275.33L269.19 130.73L269.18 130.69ZM282.27 60.86L278.18 82.62L266.98 86.46H312.37C314.39 86.46 316 86.04 317.21 85.18C318.42 84.33 319.23 82.89 319.65 80.87L322.46 65.74C322.88 63.72 322.61 62.4 321.65 61.78C320.69 61.16 319.2 60.85 317.18 60.85H282.26L282.27 60.86Z" fill="white"/>
<path d="M353.91 119.4L364.92 60.86C365.25 59.23 365.6 57.6999 365.97 56.2599C366.34 54.8299 366.93 53.58 367.76 52.54C368.58 51.49 369.72 50.68 371.17 50.1C372.62 49.52 374.58 49.23 377.07 49.23H440.27C442.75 49.23 444.61 49.52 445.84 50.1C447.07 50.68 447.89 51.5 448.31 52.54C448.73 53.59 448.85 54.8299 448.67 56.2599C448.5 57.6999 448.24 59.23 447.91 60.86L436.9 119.4C436.64 121.03 436.3 122.52 435.88 123.88C435.46 125.24 434.85 126.42 434.06 127.43C433.27 128.44 432.15 129.23 430.7 129.81C429.25 130.39 427.32 130.68 424.92 130.68H361.72C359.31 130.68 357.5 130.39 356.27 129.81C355.04 129.23 354.2 128.43 353.76 127.43C353.31 126.42 353.16 125.24 353.31 123.88C353.46 122.52 353.66 121.03 353.92 119.4H353.91ZM416 119.05L426.95 60.86H385.87L375.64 115.21L364.44 119.05H416Z" fill="white"/>
<path d="M557.57 48.24L555.17 61.44H520.37L516.53 83.4H543.17L540.89 96.36H514.13L507.89 132H490.97L505.85 48.24H557.57ZM556.283 98.52C557.483 91.8 559.843 85.84 563.363 80.64C566.963 75.44 571.323 71.44 576.443 68.64C581.563 65.84 586.963 64.44 592.643 64.44C597.603 64.44 601.763 65.44 605.123 67.44C608.563 69.44 611.083 71.96 612.683 75L614.363 65.52H631.283L619.523 132H602.603L604.403 122.28C601.763 125.4 598.323 128 594.083 130.08C589.923 132.08 585.363 133.08 580.403 133.08C575.523 133.08 571.203 132 567.443 129.84C563.683 127.6 560.763 124.48 558.683 120.48C556.603 116.4 555.563 111.68 555.563 106.32C555.563 103.84 555.803 101.24 556.283 98.52ZM608.483 98.76C608.803 96.68 608.963 95.16 608.963 94.2C608.963 89.48 607.563 85.8 604.763 83.16C602.043 80.52 598.603 79.2 594.443 79.2C591.323 79.2 588.283 79.96 585.323 81.48C582.443 83 579.923 85.24 577.763 88.2C575.603 91.08 574.163 94.52 573.443 98.52C573.203 100.04 573.083 101.48 573.083 102.84C573.083 107.64 574.443 111.44 577.163 114.24C579.883 116.96 583.323 118.32 587.483 118.32C590.603 118.32 593.643 117.56 596.603 116.04C599.563 114.44 602.083 112.16 604.163 109.2C606.323 106.24 607.763 102.76 608.483 98.76ZM710.451 65.52L698.691 132H681.891L683.331 123.6C680.771 126.48 677.611 128.76 673.851 130.44C670.091 132.04 666.131 132.84 661.971 132.84C655.091 132.84 649.651 131 645.651 127.32C641.651 123.56 639.651 118.24 639.651 111.36C639.651 108.8 639.851 106.52 640.251 104.52L647.091 65.52H663.891L657.411 102.12C657.171 103.56 657.051 104.96 657.051 106.32C657.051 110.24 658.131 113.28 660.291 115.44C662.451 117.52 665.491 118.56 669.411 118.56C673.971 118.56 677.851 117.16 681.051 114.36C684.251 111.48 686.291 107.4 687.171 102.12L693.651 65.52H710.451ZM716.947 98.76C718.147 91.88 720.587 85.88 724.267 80.76C727.947 75.56 732.507 71.56 737.947 68.76C743.467 65.88 749.427 64.44 755.827 64.44C764.067 64.44 770.507 66.48 775.147 70.56C779.867 74.64 782.507 80.44 783.067 87.96H764.947C764.467 85.08 763.227 82.84 761.227 81.24C759.227 79.56 756.547 78.72 753.187 78.72C748.387 78.72 744.267 80.48 740.827 84C737.467 87.44 735.227 92.36 734.107 98.76C733.707 101 733.507 102.92 733.507 104.52C733.507 109.08 734.627 112.6 736.867 115.08C739.107 117.48 742.227 118.68 746.227 118.68C752.947 118.68 757.907 115.64 761.107 109.56H779.227C776.107 116.76 771.427 122.48 765.187 126.72C759.027 130.96 751.907 133.08 743.827 133.08C735.427 133.08 728.707 130.72 723.667 126C718.707 121.2 716.227 114.72 716.227 106.56C716.227 104.08 716.467 101.48 716.947 98.76ZM828.494 64.44C836.974 64.44 843.694 66.8 848.654 71.52C853.614 76.16 856.094 82.44 856.094 90.36C856.094 92.92 855.894 95.2 855.494 97.2C855.014 99.6 854.494 101.68 853.934 103.44H805.334C805.254 104 805.214 104.8 805.214 105.84C805.214 110 806.414 113.28 808.814 115.68C811.294 118 814.534 119.16 818.534 119.16C821.894 119.16 824.774 118.44 827.174 117C829.654 115.48 831.654 113.52 833.174 111.12H851.294C848.334 117.52 843.734 122.8 837.494 126.96C831.334 131.04 824.334 133.08 816.494 133.08C808.014 133.08 801.214 130.68 796.094 125.88C790.974 121.08 788.414 114.56 788.414 106.32C788.414 103.92 788.654 101.4 789.134 98.76C790.334 91.88 792.774 85.84 796.454 80.64C800.214 75.44 804.854 71.44 810.374 68.64C815.894 65.84 821.934 64.44 828.494 64.44ZM838.814 93.24C838.974 91.96 839.054 91.04 839.054 90.48C839.054 86.64 837.814 83.64 835.334 81.48C832.854 79.32 829.614 78.24 825.614 78.24C821.374 78.24 817.574 79.6 814.214 82.32C810.854 84.96 808.494 88.6 807.134 93.24H838.814ZM884.797 111.48C884.717 111.96 884.677 112.6 884.677 113.4C884.677 115 885.117 116.16 885.997 116.88C886.957 117.52 888.517 117.84 890.677 117.84H898.597L896.077 132H885.397C873.397 132 867.397 127 867.397 117C867.397 115.08 867.557 113.2 867.877 111.36L873.517 79.32H865.597L867.997 65.52H876.037L878.917 49.08H895.837L892.957 65.52H907.717L905.317 79.32H890.437L884.797 111.48Z" fill="white"/>
</svg>
